<svg xmlns="http://www.w3.org/2000/svg" xmlns:xlink="http://www.w3.org/1999/xlink" viewBox="0,0,256,256" width="50px" height="50px"><g fill="#252525" fill-rule="nonzero" stroke="none" stroke-width="1" stroke-linecap="butt" stroke-linejoin="miter" stroke-miterlimit="10" stroke-dasharray="" stroke-dashoffset="0" font-family="none" font-weight="none" font-size="none" text-anchor="none" style="mix-blend-mode: normal"><path d="M0,256v-256h256v256z" id="bgRectangle"></path></g><g fill="none" fill-rule="nonzero" stroke="none" stroke-width="1" stroke-linecap="butt" stroke-linejoin="miter" stroke-miterlimit="10" stroke-dasharray="" stroke-dashoffset="0" font-family="none" font-weight="none" font-size="none" text-anchor="none" style="mix-blend-mode: normal"><g transform="scale(2.56,2.56)"><path d="M13,27c-1.10457,0 -2,0.89543 -2,2c0,1.10457 0.89543,2 2,2c1.10457,0 2,-0.89543 2,-2c0,-1.10457 -0.89543,-2 -2,-2z" fill="#ee3e54"></path><path d="M77,12c-0.55228,0 -1,0.44772 -1,1c0,0.55228 0.44772,1 1,1c0.55228,0 1,-0.44772 1,-1c0,-0.55228 -0.44772,-1 -1,-1z" fill="#f1bc19"></path><path d="M50,13c-20.43454,0 -37,16.56546 -37,37c0,20.43454 16.56546,37 37,37c20.43454,0 37,-16.56546 37,-37c0,-20.43454 -16.56546,-37 -37,-37z" fill="#fce0a2"></path><path d="M83,11c-2.20914,0 -4,1.79086 -4,4c0,2.20914 1.79086,4 4,4c2.20914,0 4,-1.79086 4,-4c0,-2.20914 -1.79086,-4 -4,-4z" fill="#f1bc19"></path><path d="M87,22c-1.10457,0 -2,0.89543 -2,2c0,1.10457 0.89543,2 2,2c1.10457,0 2,-0.89543 2,-2c0,-1.10457 -0.89543,-2 -2,-2z" fill="#ee3e54"></path><path d="M81,74c-1.10457,0 -2,0.89543 -2,2c0,1.10457 0.89543,2 2,2c1.10457,0 2,-0.89543 2,-2c0,-1.10457 -0.89543,-2 -2,-2zM15,59c-2.20914,0 -4,1.79086 -4,4c0,2.20914 1.79086,4 4,4c2.20914,0 4,-1.79086 4,-4c0,-2.20914 -1.79086,-4 -4,-4z" fill="#fbcd59"></path><path d="M25,85c-1.10457,0 -2,0.89543 -2,2c0,1.10457 0.89543,2 2,2c1.10457,0 2,-0.89543 2,-2c0,-1.10457 -0.89543,-2 -2,-2z" fill="#ee3e54"></path><path d="M18.5,51c-1.38071,0 -2.5,1.11929 -2.5,2.5c0,1.38071 1.11929,2.5 2.5,2.5c1.38071,0 2.5,-1.11929 2.5,-2.5c0,-1.38071 -1.11929,-2.5 -2.5,-2.5z" fill="#ffffff"></path><path d="M21,66c-0.55228,0 -1,0.44772 -1,1c0,0.55228 0.44772,1 1,1c0.55228,0 1,-0.44772 1,-1c0,-0.55228 -0.44772,-1 -1,-1z" fill="#f1bc19"></path><path d="M80,33c-0.55228,0 -1,0.44772 -1,1c0,0.55228 0.44772,1 1,1c0.55228,0 1,-0.44772 1,-1c0,-0.55228 -0.44772,-1 -1,-1z" fill="#ffffff"></path><g fill="#78a2d2"><path d="M50,25.625c-13.39291,0 -24.25,10.85709 -24.25,24.25c0,13.39291 10.85709,24.25 24.25,24.25c13.39291,0 24.25,-10.85709 24.25,-24.25c0,-13.39291 -10.85709,-24.25 -24.25,-24.25z"></path></g><g fill="#472b29"><path d="M68.164,59.445c-0.073,0 -0.148,-0.017 -0.219,-0.051c-0.248,-0.121 -0.351,-0.42 -0.23,-0.668c0.132,-0.271 0.256,-0.543 0.375,-0.818c0.46,-1.068 0.826,-2.186 1.087,-3.318c0.062,-0.27 0.333,-0.437 0.6,-0.375c0.269,0.063 0.437,0.331 0.375,0.6c-0.275,1.191 -0.66,2.366 -1.144,3.49c-0.125,0.289 -0.256,0.575 -0.395,0.859c-0.086,0.178 -0.264,0.281 -0.449,0.281z"></path></g><g fill="#472b29"><path d="M70.264,52.336c-0.015,0 -0.03,-0.001 -0.045,-0.002c-0.275,-0.024 -0.478,-0.268 -0.453,-0.543c0.039,-0.429 0.063,-0.857 0.074,-1.286c0.067,-2.666 -0.39,-5.273 -1.358,-7.752c-0.101,-0.257 0.027,-0.547 0.284,-0.647c0.259,-0.104 0.547,0.025 0.648,0.284c1.017,2.602 1.497,5.341 1.426,8.14c-0.011,0.451 -0.037,0.901 -0.078,1.352c-0.024,0.259 -0.242,0.454 -0.498,0.454z"></path></g><g fill="#472b29"><path d="M35.107,36.532c-0.123,0 -0.245,-0.045 -0.341,-0.135c-0.202,-0.188 -0.212,-0.505 -0.024,-0.706c3.399,-3.642 7.999,-5.94 12.95,-6.475c0.277,-0.023 0.521,0.17 0.551,0.443c0.03,0.274 -0.169,0.521 -0.443,0.551c-4.713,0.509 -9.091,2.697 -12.327,6.162c-0.098,0.107 -0.232,0.16 -0.366,0.16z"></path></g><g fill="#472b29"><path d="M36.138,65.284c-0.123,0 -0.245,-0.045 -0.341,-0.135c-7.104,-6.632 -8.721,-17.138 -3.934,-25.548c0.137,-0.242 0.442,-0.325 0.682,-0.188c0.24,0.137 0.324,0.442 0.187,0.682c-4.557,8.006 -3.016,18.008 3.748,24.323c0.202,0.188 0.212,0.505 0.024,0.706c-0.099,0.106 -0.233,0.16 -0.366,0.16z"></path></g><g fill="#472b29"><path d="M58.889,68.769c-0.186,0 -0.365,-0.104 -0.451,-0.283c-0.12,-0.248 -0.016,-0.547 0.233,-0.667c2.202,-1.062 4.172,-2.515 5.856,-4.316c0.679,-0.729 1.307,-1.511 1.866,-2.325c0.156,-0.227 0.469,-0.285 0.695,-0.129c0.228,0.156 0.286,0.467 0.129,0.695c-0.587,0.855 -1.246,1.677 -1.959,2.44c-1.769,1.894 -3.838,3.42 -6.152,4.535c-0.07,0.034 -0.144,0.05 -0.217,0.05z"></path></g><g><path d="M46.458,73.5v-17h-6.021v-5.978h6.021v-6.216c-0.137,-5.577 4.159,-11.002 14.104,-7.994l-0.021,5.271l-3.508,-0.022c-2.699,0 -3.628,0.863 -3.628,2.745v6.216h7.157l-1.258,5.978h-5.899v17" fill="#ffffff"></path><path d="M53.905,73.5h-1v-17.5h5.993l1.048,-4.978h-7.041v-6.716c0,-2.244 1.273,-3.245 4.128,-3.245l3.01,0.019l0.018,-4.394c-4.274,-1.22 -7.779,-0.913 -10.154,0.896c-1.942,1.479 -3.018,3.926 -2.949,6.712v6.729h-6.021v4.977h6.021v17.5h-1v-16.5h-6.021v-6.978h6.021v-5.716c-0.076,-3.099 1.142,-5.845 3.343,-7.521c1.888,-1.438 5.398,-2.768 11.406,-0.952l0.357,0.107l-0.024,6.145l-4.009,-0.024c-2.614,0 -3.125,0.823 -3.125,2.245v5.716h7.273l-1.469,6.978h-5.805z" fill="#472b29"></path></g><g fill="#472b29"><path d="M50,74.825c-13.757,0 -24.95,-11.192 -24.95,-24.95c0,-13.758 11.193,-24.95 24.95,-24.95c13.757,0 24.95,11.192 24.95,24.95c0,13.758 -11.193,24.95 -24.95,24.95zM50,26.325c-12.985,0 -23.55,10.564 -23.55,23.55c0,12.986 10.565,23.55 23.55,23.55c12.985,0 23.55,-10.564 23.55,-23.55c0,-12.986 -10.565,-23.55 -23.55,-23.55z"></path></g></g></g></svg>